<svg id="Capa_1" enable-background="new 0 0 511.999 511.999" height="512" viewBox="0 0 511.999 511.999" width="512" xmlns="http://www.w3.org/2000/svg"><g><path d="m182.29 314.284 15.425 15.425c5.341 5.339 13.981 5.339 19.322 0l9.653-9.654c1.549.709 3.136 1.366 4.739 1.963v13.652c0 7.534 6.129 13.663 13.663 13.663h21.813c7.534 0 13.663-6.129 13.663-13.663v-13.652c1.603-.597 3.19-1.254 4.739-1.963l9.654 9.655c5.325 5.322 13.994 5.325 19.321-.001l15.425-15.425c5.326-5.326 5.326-13.994-.001-19.323l-9.653-9.652c.709-1.549 1.366-3.136 1.963-4.739h13.652c7.534 0 13.663-6.129 13.663-13.663v-21.813c0-7.534-6.129-13.663-13.663-13.663h-13.652c-.596-1.602-1.254-3.189-1.963-4.739l9.655-9.654c5.325-5.327 5.325-13.995-.001-19.321l-15.426-15.425c-5.326-5.327-13.994-5.325-19.322 0l-9.652 9.654c-1.549-.709-3.136-1.366-4.739-1.963v-13.652c0-7.534-6.129-13.663-13.663-13.663h-21.813c-7.534 0-13.663 6.129-13.663 13.663v13.652c-1.605.598-3.193 1.255-4.739 1.963l-9.653-9.653c-5.338-5.34-13.983-5.341-19.322 0l-15.425 15.424c-5.326 5.326-5.326 13.994.001 19.323l9.653 9.652c-.709 1.549-1.366 3.136-1.963 4.739h-13.652c-7.534 0-13.663 6.129-13.663 13.663v21.813c0 7.534 6.129 13.663 13.663 13.663h13.652c.597 1.604 1.255 3.191 1.963 4.739l-9.655 9.654c-5.325 5.327-5.325 13.995.001 19.321zm8.633-48.715h-13.257v-19.14h13.257c5.762 0 10.927-3.635 12.853-9.042.623-1.75 1.34-3.481 2.133-5.15 2.464-5.19 1.382-11.414-2.691-15.487l-9.374-9.374 13.533-13.533 9.374 9.375c4.073 4.072 10.297 5.156 15.491 2.688 1.662-.789 3.394-1.507 5.145-2.131 5.409-1.926 9.044-7.091 9.044-12.852v-13.257h19.14v13.257c0 5.761 3.635 10.926 9.042 12.852 1.75.623 3.481 1.34 5.15 2.133 5.19 2.465 11.412 1.381 15.487-2.691l9.374-9.374 13.533 13.533-9.375 9.374c-4.073 4.074-5.154 10.298-2.69 15.487.793 1.669 1.51 3.401 2.133 5.148 1.926 5.409 7.091 9.044 12.853 9.044h13.257v19.14h-13.258c-5.761 0-10.926 3.635-12.851 9.042-.624 1.75-1.341 3.481-2.134 5.15-2.463 5.188-1.382 11.412 2.691 15.487l9.374 9.374-13.533 13.533-9.376-9.376c-4.072-4.071-10.294-5.152-15.488-2.688-1.666.792-3.397 1.509-5.145 2.131-5.41 1.926-9.045 7.091-9.045 12.853v13.258h-19.14v-13.258c0-5.761-3.635-10.926-9.042-12.851-1.75-.624-3.481-1.341-5.15-2.134-5.191-2.465-11.414-1.381-15.487 2.69l-9.374 9.375-13.533-13.533 9.376-9.376c4.071-4.073 5.152-10.297 2.688-15.488-.792-1.666-1.509-3.397-2.132-5.146-1.926-5.408-7.091-9.043-12.853-9.043z"/><path d="m256 296.029c22.072 0 40.029-17.957 40.029-40.03 0-22.072-17.957-40.029-40.029-40.029s-40.03 17.957-40.03 40.029c0 22.073 17.958 40.03 40.03 40.03zm0-65.059c13.801 0 25.029 11.229 25.029 25.029 0 13.802-11.229 25.03-25.029 25.03-13.802 0-25.03-11.229-25.03-25.03s11.228-25.029 25.03-25.029z"/><path d="m94.218 188.437c52.09 0 94.219-42.331 94.219-94.218 0-51.953-42.267-94.219-94.219-94.219s-94.218 42.266-94.218 94.218c0 51.911 42.236 94.219 94.218 94.219zm50.203-32.988c-14.197 11.661-31.871 17.988-50.203 17.988-17.936 0-35.71-6.084-50.202-17.987 0-15.529 12.243-26.314 25.858-26.314h48.688c13.629-.001 25.859 10.796 25.859 26.313zm-50.203-140.449c43.682 0 79.219 35.537 79.219 79.218 0 17.96-6.017 34.535-16.127 47.837-5.426-16.205-20.739-27.92-38.748-27.92h-48.688c-18.007 0-33.321 11.715-38.747 27.92-10.11-13.302-16.127-29.877-16.127-47.837 0-43.681 35.537-79.218 79.218-79.218z"/><path d="m417.781 323.562c-51.952 0-94.219 42.267-94.219 94.219 0 51.931 42.191 94.218 94.219 94.218 51.766 0 94.218-42.078 94.218-94.218 0-51.952-42.266-94.219-94.218-94.219zm50.202 155.45c-29.09 23.894-71.085 24.083-100.405 0 0-15.529 12.243-26.313 25.858-26.313h48.688c13.631-.001 25.859 10.795 25.859 26.313zm12.889-13.394c-5.426-16.205-20.739-27.92-38.747-27.92h-48.688c-18.007 0-33.32 11.715-38.746 27.92-10.111-13.302-16.128-29.877-16.128-47.837 0-43.682 35.537-79.219 79.219-79.219 43.681 0 79.218 35.537 79.218 79.219-.001 17.96-6.018 34.535-16.128 47.837z"/><path d="m120.145 90.979c14.331-14.33 14.332-37.524 0-51.854h.001c-14.329-14.329-37.524-14.333-51.854 0-14.332 14.329-14.333 37.522-.002 51.854 14.329 14.329 37.524 14.332 51.855 0zm-41.248-41.249c8.448-8.448 22.193-8.448 30.641 0h.001c8.467 8.468 8.468 22.173-.001 30.642-8.447 8.447-22.192 8.447-30.642 0-8.467-8.468-8.468-22.173.001-30.642z"/><path d="m68.291 414.542c14.293 14.293 37.557 14.295 51.854 0 14.296-14.297 14.296-37.56 0-51.856h-.001c-14.295-14.295-37.558-14.295-51.854 0-14.296 14.296-14.296 37.559.001 51.856zm10.605-41.249c8.45-8.448 22.194-8.448 30.642 0 8.448 8.447 8.448 22.194.001 30.642-8.447 8.449-22.194 8.449-30.642 0-8.448-8.448-8.448-22.195-.001-30.642z"/><path d="m391.853 39.124c-14.295 14.296-14.295 37.558 0 51.854 14.311 14.311 37.575 14.282 51.855 0 14.331-14.33 14.332-37.524 0-51.854h.001c-14.297-14.298-37.56-14.296-51.856 0zm41.249 41.248c-8.447 8.448-22.192 8.449-30.642 0-8.448-8.448-8.448-22.194 0-30.642 8.447-8.448 22.195-8.448 30.642 0h.001c8.467 8.469 8.468 22.174-.001 30.642z"/><path d="m443.708 362.686c-14.295-14.295-37.559-14.296-51.855.001-14.295 14.296-14.295 37.559.001 51.855s37.558 14.295 51.855 0c14.296-14.297 14.296-37.56-.001-51.856zm-10.605 41.249c-8.447 8.448-22.193 8.449-30.643.001-8.447-8.448-8.447-22.195-.001-30.643 8.449-8.447 22.194-8.448 30.643 0 8.448 8.447 8.448 22.194.001 30.642z"/><path d="m303.19 101.718c4.143 0 7.5-3.358 7.5-7.5s-3.357-7.5-7.5-7.5h-94.382c-4.143 0-7.5 3.358-7.5 7.5s3.357 7.5 7.5 7.5z"/><path d="m208.809 410.281c-4.143 0-7.5 3.357-7.5 7.5s3.357 7.5 7.5 7.5h94.382c4.143 0 7.5-3.357 7.5-7.5s-3.357-7.5-7.5-7.5z"/><path d="m101.718 303.19v-94.382c0-4.143-3.357-7.5-7.5-7.5s-7.5 3.357-7.5 7.5v94.382c0 4.143 3.357 7.5 7.5 7.5s7.5-3.357 7.5-7.5z"/><path d="m425.28 303.19v-94.382c0-4.143-3.357-7.5-7.5-7.5s-7.5 3.357-7.5 7.5v94.382c0 4.143 3.357 7.5 7.5 7.5s7.5-3.357 7.5-7.5z"/><path d="m495.521 78.932c.794 4.065 4.739 6.719 8.799 5.922 4.065-.794 6.717-4.734 5.922-8.799-8.611-44.069-47.497-76.055-92.461-76.055-51.952 0-94.219 42.266-94.219 94.218 0 52.203 42.439 94.218 94.219 94.218 44.493 0 82.867-31.259 92.115-74.37.869-4.05-1.71-8.038-5.76-8.906-4.045-.866-8.037 1.71-8.906 5.76-2.48 11.56-7.495 22.102-14.368 31.107-5.434-16.191-20.74-27.892-38.737-27.892h-48.688c-18.007 0-33.321 11.715-38.747 27.92-10.111-13.302-16.127-29.877-16.127-47.837-.001-43.681 35.537-79.218 79.218-79.218 37.807 0 70.501 26.887 77.74 63.932zm-102.084 50.203h48.688c14.259 0 25.858 11.6 25.858 25.859v.367c-13.827 11.339-31.431 18.076-50.202 18.076-17.678 0-35.531-5.936-50.203-17.988 0-15.529 12.243-26.314 25.859-26.314z"/><path d="m94.218 511.999c51.995 0 94.219-42.284 94.219-94.218 0-44.551-31.632-83.368-75.213-92.3-4.052-.825-8.022 1.784-8.854 5.842s1.784 8.021 5.842 8.854c36.635 7.507 63.225 40.145 63.225 77.604 0 17.959-6.017 34.534-16.128 47.837-5.426-16.205-20.739-27.92-38.747-27.92h-48.688c-18.007 0-33.321 11.715-38.747 27.92-10.11-13.302-16.127-29.877-16.127-47.837 0-37.46 26.589-70.098 63.224-77.604 4.058-.832 6.673-4.796 5.842-8.854s-4.794-6.669-8.854-5.842c-43.581 8.932-75.212 47.749-75.212 92.3 0 51.858 42.109 94.218 94.218 94.218zm-24.344-59.301h48.688c13.63 0 25.859 10.796 25.859 26.313-29.04 23.852-71.046 24.115-100.405 0 0-15.529 12.243-26.313 25.858-26.313z"/></g></svg>